{"glyphs":{"0":{"ha":339,"x_min":43,"x_max":292,"o":"m 106 404 q 116 289 106 353 q 138 203 126 225 q 170 179 151 178 q 206 207 189 181 q 219 254 217 226 q 222 381 222 282 q 217 527 222 486 q 193 638 213 568 q 156 669 175 699 q 153 665 154 668 q 122 549 138 638 q 106 404 106 460 m 172 110 q 138 115 150 110 q 108 140 126 121 q 61 224 76 172 q 43 368 46 275 q 65 619 38 514 q 139 742 92 724 q 192 740 163 751 q 236 706 221 729 q 286 529 268 656 q 292 310 304 403 q 251 156 278 201 q 172 110 224 110 z "},"1":{"ha":304,"x_min":42,"x_max":260,"o":"m 207 449 l 207 175 q 216 175 210 175 q 226 175 222 175 q 234 175 229 175 q 242 174 239 175 q 248 172 244 174 q 253 168 251 171 q 257 162 256 165 q 260 154 258 158 q 249 118 265 126 q 165 110 232 110 q 97 112 108 110 q 79 128 85 114 q 85 167 68 154 q 135 175 101 179 l 135 618 q 117 599 131 615 q 91 574 103 582 q 68 572 79 567 q 42 592 47 578 q 60 642 38 603 q 107 706 82 681 q 118 719 114 713 q 123 730 122 726 q 128 736 124 733 q 144 742 133 739 q 190 740 182 749 q 207 571 206 722 q 207 449 207 543 z "},"2":{"ha":306,"x_min":42,"x_max":261,"o":"m 83 715 q 153 740 104 740 q 222 714 201 740 q 258 646 249 683 q 260 572 268 606 q 218 474 253 539 q 154 338 154 356 q 149 315 154 324 q 128 260 140 306 q 114 182 117 215 l 182 182 q 241 179 228 182 q 260 167 254 176 q 260 135 269 150 q 235 121 253 124 q 154 118 218 118 q 74 121 90 118 q 50 135 57 124 q 51 214 42 151 q 75 321 60 276 q 125 440 92 368 q 179 546 158 513 q 194 583 188 551 q 199 628 201 615 q 150 675 185 675 q 119 645 133 675 q 106 579 106 615 q 68 543 106 528 q 42 575 46 551 q 50 651 39 599 q 83 715 57 683 z "},"3":{"ha":356,"x_min":51,"x_max":306,"o":"m 153 740 q 224 728 201 740 q 279 635 267 706 q 261 510 292 564 l 242 475 q 294 393 289 415 l 306 349 q 285 194 329 268 q 153 119 242 119 q 59 185 94 119 q 54 296 24 250 q 82 296 63 307 q 104 251 104 286 q 118 206 104 218 q 186 183 154 176 q 239 229 218 189 q 249 294 249 247 q 239 368 249 342 q 124 450 213 442 q 104 457 108 453 q 100 476 100 461 q 106 498 100 493 q 136 508 111 503 q 185 525 167 514 q 215 578 210 542 q 203 645 219 615 q 160 675 188 675 q 121 654 138 675 q 104 606 104 633 q 100 583 104 588 q 81 578 96 578 q 52 594 58 578 q 51 651 46 610 q 81 715 57 692 q 109 736 97 732 q 153 740 121 740 z "},"4":{"ha":396,"x_min":46,"x_max":354,"o":"m 169 419 q 149 374 169 418 q 129 326 128 331 q 225 319 133 319 l 225 538 q 196 481 222 538 q 169 419 169 425 m 81 383 q 104 437 86 399 q 135 504 122 475 q 144 535 149 533 q 151 546 144 546 q 178 603 160 558 q 206 663 197 649 q 222 701 217 682 q 235 731 226 719 q 269 740 247 743 q 293 722 290 738 q 299 324 299 693 l 326 313 q 354 279 358 303 q 317 256 350 256 q 301 250 304 256 q 299 221 299 244 q 302 190 299 197 q 322 176 306 182 q 347 131 369 157 q 178 118 344 118 q 178 135 178 126 q 178 152 178 144 q 181 165 179 160 q 188 174 182 171 q 201 178 193 178 q 222 188 218 181 q 225 219 225 194 l 225 256 l 138 256 q 47 267 58 256 q 60 332 35 278 q 81 383 81 376 z "},"5":{"ha":333,"x_min":42,"x_max":290,"o":"m 168 732 q 279 718 265 732 q 290 701 290 707 q 278 682 290 696 q 185 667 264 667 l 107 667 l 107 564 q 278 389 240 543 q 238 142 321 214 q 206 120 218 124 q 163 119 194 117 q 97 139 126 121 q 67 176 68 157 q 59 192 64 183 q 52 209 54 200 q 50 235 50 218 q 65 275 50 269 q 92 272 78 279 q 107 254 107 264 q 118 219 107 242 q 151 185 131 194 q 190 185 171 176 q 221 222 213 194 q 226 310 229 249 q 168 468 222 415 q 141 487 151 483 q 104 488 131 490 q 51 501 60 483 q 42 611 42 519 q 44 698 42 679 q 56 722 46 717 q 168 732 72 732 z "},"6":{"ha":344,"x_min":47,"x_max":301,"o":"m 121 296 q 137 209 121 243 q 178 175 153 175 q 225 203 208 175 q 242 279 242 231 q 235 348 242 326 q 210 379 228 369 q 144 382 168 404 q 121 296 121 360 m 153 661 q 119 551 136 629 q 106 435 101 472 l 138 450 q 246 431 189 478 q 291 372 281 400 q 301 279 301 344 q 299 208 301 226 q 283 172 296 190 q 176 110 239 110 q 121 128 139 110 q 72 193 72 174 q 64 211 72 203 q 47 301 57 218 q 64 590 31 447 q 153 749 97 733 q 281 694 231 771 q 301 615 299 667 q 289 551 304 563 q 258 554 269 540 q 240 607 246 568 q 196 689 231 678 q 153 661 171 697 z "},"7":{"ha":328,"x_min":42,"x_max":286,"o":"m 114 639 q 113 621 114 633 q 112 600 113 608 q 108 582 111 592 q 99 567 106 572 q 83 563 93 563 q 51 572 61 563 q 42 636 44 579 q 47 711 40 693 q 71 722 50 719 q 168 724 92 724 l 286 724 q 246 482 278 656 q 211 256 214 308 q 200 129 206 149 q 172 110 194 110 q 143 122 147 110 q 139 183 136 138 q 144 254 142 229 q 154 326 147 279 q 164 393 161 374 q 217 667 168 433 l 114 667 l 114 639 z "},"8":{"ha":326,"x_min":43,"x_max":283,"o":"m 203 425 q 166 449 189 444 q 132 439 143 454 q 108 306 106 407 q 138 185 110 206 q 174 176 153 174 q 207 192 194 178 q 219 222 217 203 q 221 304 222 242 q 217 388 219 368 q 203 425 214 408 m 160 514 q 195 523 186 519 q 211 542 204 526 q 218 592 218 558 q 215 638 218 629 q 193 658 211 647 q 151 675 165 675 q 122 647 138 675 q 106 594 106 619 q 122 539 106 564 q 160 514 139 514 m 168 110 q 101 136 129 110 q 85 153 92 146 q 78 165 79 161 q 73 179 76 169 q 65 197 69 189 q 44 329 42 244 q 72 456 46 414 q 79 478 81 468 q 63 518 78 489 q 58 663 25 593 q 122 726 85 719 q 178 726 143 729 q 231 714 214 722 q 281 624 269 696 q 263 508 292 551 q 253 463 243 479 q 283 299 282 413 q 281 220 285 242 q 267 178 278 199 q 225 125 247 140 q 168 110 203 110 z "},"9":{"ha":339,"x_min":42,"x_max":296,"o":"m 103 574 q 165 467 103 471 q 193 469 186 465 q 208 494 200 474 q 219 578 222 526 q 199 653 215 629 q 135 665 169 694 q 103 574 103 638 m 157 118 q 75 160 108 118 q 42 264 42 203 q 53 310 42 296 q 81 314 64 325 q 95 293 90 308 q 110 226 100 278 q 129 192 113 210 q 158 175 146 175 q 225 349 193 172 q 228 363 226 358 q 231 421 238 421 q 215 414 228 422 q 164 401 197 403 q 118 411 131 400 q 57 479 72 447 q 42 569 42 511 q 60 673 42 636 q 122 729 79 710 q 176 735 144 740 q 225 714 207 731 q 296 516 285 658 q 263 228 307 374 q 218 148 247 178 q 157 118 189 118 z "}," ":{"ha":242,"x_min":0,"x_max":0,"o":""},"!":{"ha":164,"x_min":42,"x_max":114,"o":"m 42 190 q 60 229 42 217 q 113 216 90 250 q 113 160 136 182 q 54 156 93 140 q 42 190 42 160 m 107 544 l 107 304 q 54 317 58 304 q 50 554 50 328 q 52 748 50 714 q 64 788 54 782 q 93 792 79 797 q 100 782 97 790 q 104 746 103 774 q 106 672 106 718 q 107 544 107 626 z "},"\"":{"ha":301,"x_min":42,"x_max":260,"o":"m 171 646 q 171 664 171 653 q 176 728 171 715 q 215 747 182 740 q 251 727 243 747 q 260 643 260 707 q 252 563 260 579 q 217 546 244 546 q 179 564 188 546 q 171 646 171 582 m 139 642 q 128 567 139 588 q 88 546 117 546 q 49 563 57 546 q 42 649 42 581 q 44 718 42 703 q 56 739 46 733 q 111 742 88 757 q 139 642 139 724 z "},"$":{"ha":318,"x_min":42,"x_max":271,"o":"m 219 306 q 188 372 219 333 q 192 256 188 261 q 210 272 201 256 q 219 306 219 288 m 118 618 q 110 597 111 618 q 114 564 108 575 q 122 571 119 546 q 118 618 125 617 m 188 747 q 191 707 188 715 q 207 692 194 699 q 268 579 268 661 q 260 525 268 531 q 234 527 249 518 q 217 553 219 536 q 214 567 215 558 q 210 586 213 575 q 207 601 208 597 q 189 585 194 661 q 188 457 185 522 l 218 429 q 271 264 290 363 q 242 215 265 240 q 203 190 219 190 q 190 184 193 190 q 188 158 188 178 q 184 131 188 135 q 160 126 181 126 q 131 135 139 126 q 122 169 122 144 q 96 200 122 188 q 42 310 42 228 q 44 347 42 342 q 65 351 47 351 q 90 343 85 351 q 103 286 94 335 q 114 254 108 251 q 122 344 122 260 q 115 433 122 433 q 83 476 108 433 q 51 602 47 538 q 99 685 56 667 q 119 699 115 692 q 122 733 122 707 q 124 765 122 754 q 131 790 126 776 q 147 803 136 803 q 174 800 157 803 q 188 747 188 794 z "},"%":{"ha":396,"x_min":51,"x_max":354,"o":"m 279 182 q 240 172 278 172 q 201 182 203 172 q 188 201 197 193 q 179 251 172 217 q 207 290 186 285 q 296 267 276 308 q 293 201 315 224 q 279 182 283 193 m 119 546 q 92 549 99 546 q 79 567 85 553 q 72 601 69 590 q 89 626 74 613 q 157 625 122 658 q 172 572 185 599 q 119 546 160 546 m 354 756 q 323 669 357 744 q 289 592 289 594 q 272 550 290 592 q 230 456 253 508 q 200 385 207 403 q 119 206 164 286 q 111 176 111 189 q 97 147 110 158 q 68 135 85 135 q 53 207 26 135 q 94 299 65 242 q 111 336 111 335 q 299 772 164 475 q 332 788 308 794 q 354 756 356 781 z "},"&":{"ha":397,"x_min":42,"x_max":354,"o":"m 203 274 q 188 303 204 276 q 153 353 172 329 q 132 376 135 378 q 107 340 124 376 q 90 286 90 304 q 103 238 90 265 q 129 201 115 211 q 174 190 147 188 q 215 211 200 193 q 229 232 229 226 q 218 250 229 238 q 203 274 203 268 m 160 465 q 211 515 171 465 q 256 660 271 589 q 242 692 250 682 q 210 718 235 701 q 174 729 186 732 q 140 703 161 726 q 114 564 94 653 q 137 494 124 524 q 160 465 150 465 m 317 632 q 285 522 317 581 q 219 453 253 464 q 194 429 203 446 q 192 396 186 411 q 226 333 197 381 q 254 321 247 300 q 264 379 260 333 q 275 433 268 422 q 301 438 282 444 q 315 422 314 433 q 313 365 317 411 q 303 269 307 296 q 304 240 300 250 q 328 206 308 229 q 354 158 353 178 q 333 136 356 139 q 282 176 301 132 q 274 184 279 186 q 251 167 268 182 q 142 136 213 128 q 42 215 108 140 l 42 282 q 46 345 42 332 q 74 386 50 358 q 88 401 79 392 q 97 413 96 411 q 103 421 99 415 q 106 428 107 426 q 106 435 106 431 q 103 444 107 439 q 98 454 100 449 q 90 469 96 460 q 81 489 85 479 q 59 547 64 525 q 54 611 54 568 q 58 675 54 660 q 79 715 61 690 q 150 782 119 774 q 213 779 181 790 q 286 722 256 765 q 317 632 317 679 z "},"'":{"ha":196,"x_min":42,"x_max":154,"o":"m 93 756 q 154 639 154 756 q 142 553 154 576 q 97 529 131 529 q 53 552 65 529 q 42 639 42 575 q 45 707 42 692 q 63 736 49 722 q 93 756 82 756 z "},"(":{"ha":321,"x_min":42,"x_max":278,"o":"m 240 -36 q 194 -3 226 -36 q 147 54 161 29 q 131 78 140 68 q 95 138 121 85 q 58 228 69 192 q 42 351 43 276 q 54 469 40 425 q 100 576 67 511 q 156 667 133 642 q 180 694 164 675 q 200 718 196 714 q 242 740 219 740 q 275 718 264 740 q 277 695 281 703 q 253 664 274 688 q 136 465 165 569 q 124 354 125 426 q 135 250 124 282 q 250 53 174 133 q 276 -7 279 22 q 240 -36 272 -36 z "},")":{"ha":325,"x_min":44,"x_max":283,"o":"m 203 100 q 183 68 204 94 q 163 38 163 42 q 127 -4 163 28 q 81 -36 92 -36 q 44 -9 50 -36 q 64 43 39 18 q 154 172 115 96 q 200 329 193 249 q 173 494 207 406 q 78 649 139 583 q 51 731 25 704 q 136 703 81 760 q 171 661 171 665 q 185 638 171 651 q 252 507 221 597 q 283 354 283 417 q 255 212 283 306 q 208 111 226 118 q 203 100 203 108 z "},"*":{"ha":453,"x_min":42,"x_max":411,"o":"m 325 643 q 395 635 374 646 q 411 585 417 625 q 403 553 408 560 q 372 538 397 547 q 352 531 363 533 q 338 527 342 528 q 333 522 335 526 q 335 514 332 518 q 347 499 339 510 q 354 418 379 457 q 297 397 332 383 q 272 417 283 403 q 236 428 242 450 q 235 419 235 425 q 216 391 235 406 q 179 376 197 376 q 129 406 140 376 q 133 467 118 436 q 133 478 138 478 q 114 472 129 478 q 67 479 89 463 q 42 540 36 503 q 81 578 49 578 q 106 621 149 578 q 90 663 89 638 q 108 706 92 688 q 186 699 143 744 q 219 689 217 672 q 256 733 219 717 q 319 728 293 749 q 328 719 325 726 q 331 701 332 713 q 330 682 331 690 q 327 660 329 674 q 325 643 325 646 z "},"+":{"ha":524,"x_min":40,"x_max":469,"o":"m 299 535 q 306 376 306 522 q 360 376 310 376 q 439 374 411 376 q 469 364 467 371 q 465 304 499 335 q 376 288 449 288 l 306 288 l 306 215 q 302 153 306 168 q 288 126 299 138 q 263 110 272 111 q 235 122 253 110 q 219 144 222 131 q 217 211 217 158 l 217 288 l 143 288 q 54 304 71 288 q 41 340 40 318 q 57 369 42 361 q 217 376 71 376 l 217 453 q 219 519 217 506 q 235 542 222 532 q 270 551 249 553 q 299 535 292 549 z "},",":{"ha":215,"x_min":49,"x_max":171,"o":"m 49 111 q 62 183 25 147 q 142 194 99 219 q 171 156 165 181 q 169 110 175 131 q 139 35 164 89 q 115 -10 122 -1 q 93 -18 107 -19 q 71 4 75 -21 q 76 39 67 29 q 84 63 85 49 q 74 81 83 78 q 49 111 67 83 z "},"-":{"ha":300,"x_min":42,"x_max":258,"o":"m 44 332 q 113 344 40 342 q 208 344 143 344 q 258 344 247 344 l 258 304 l 154 304 q 43 318 49 304 q 44 332 40 322 z "},".":{"ha":182,"x_min":54,"x_max":140,"o":"m 56 192 q 91 207 67 206 q 128 196 115 208 q 140 153 143 182 q 119 113 138 124 q 54 124 83 89 q 56 192 25 158 z "},"/":{"ha":375,"x_min":42,"x_max":328,"o":"m 253 539 q 192 397 233 492 q 111 213 150 303 q 85 160 93 171 q 64 151 78 150 q 42 190 38 156 q 82 294 46 225 q 104 353 104 336 q 113 368 104 364 q 121 381 121 372 q 156 467 126 403 q 194 554 186 531 q 215 598 199 565 q 233 642 231 631 q 263 711 233 653 q 295 767 285 757 q 322 765 306 776 q 327 720 335 746 q 263 563 319 694 q 253 539 256 547 z "},":":{"ha":196,"x_min":42,"x_max":154,"o":"m 42 154 q 58 190 42 175 q 99 207 75 206 q 138 191 121 207 q 154 156 154 175 q 134 116 154 139 q 99 93 114 93 q 62 115 82 93 q 42 154 42 136 m 54 513 q 114 527 74 540 q 154 479 154 514 q 128 431 154 450 q 81 425 103 413 q 44 465 51 440 q 54 513 38 489 z "},";":{"ha":226,"x_min":50,"x_max":185,"o":"m 50 176 q 88 215 60 203 q 147 213 117 226 q 184 163 182 194 q 158 68 186 131 q 124 -1 135 13 q 93 -8 113 -14 q 82 57 56 0 q 85 76 88 71 q 74 90 83 81 q 50 176 21 135 m 115 529 q 166 511 147 529 q 185 463 185 493 q 122 394 185 403 q 68 411 90 389 q 58 501 24 456 q 83 524 72 519 q 115 529 93 529 z "},"=":{"ha":433,"x_min":42,"x_max":393,"o":"m 215 288 l 369 288 q 378 274 371 283 q 389 258 385 264 q 393 242 393 251 q 385 224 393 232 l 372 203 q 65 203 94 197 q 42 228 47 206 q 50 268 38 250 q 80 285 60 283 q 215 288 100 288 m 63 482 l 369 482 q 389 440 385 465 q 374 399 393 415 q 215 393 372 393 q 57 399 58 393 q 43 440 39 415 q 63 482 47 465 z "},">":{"ha":592,"x_min":42,"x_max":550,"o":"m 550 358 q 515 264 550 303 q 456 218 500 246 q 401 190 413 190 q 386 185 392 190 q 142 101 381 174 q 42 156 42 71 q 56 190 42 181 q 126 214 69 199 q 315 272 229 240 q 425 326 400 304 q 436 362 447 344 q 375 404 425 379 q 237 458 338 424 q 92 501 136 492 q 54 519 67 506 q 42 558 42 531 q 54 597 42 585 q 94 610 65 608 q 150 603 122 613 q 410 506 317 549 q 519 435 489 467 q 550 358 550 403 z "},"?":{"ha":317,"x_min":43,"x_max":272,"o":"m 126 158 q 151 173 144 172 q 171 160 157 174 q 180 128 183 146 q 160 106 176 111 q 123 118 140 94 q 126 158 106 142 m 200 529 q 212 574 208 529 q 208 636 215 619 q 175 667 200 656 q 131 658 150 679 q 111 603 111 642 q 102 558 111 571 q 69 546 93 546 q 44 562 49 546 q 46 622 39 578 q 106 726 60 707 q 195 731 151 747 q 264 667 239 714 q 272 559 282 635 q 239 468 263 483 q 205 404 221 457 q 186 292 189 351 q 179 224 183 240 q 165 200 175 207 q 129 203 150 189 q 112 226 114 213 q 113 299 110 239 q 139 429 115 379 q 166 476 151 454 q 188 514 181 499 q 200 529 193 529 z "},"@":{"ha":679,"x_min":42,"x_max":636,"o":"m 379 331 q 369 375 379 365 q 317 388 349 390 q 271 365 285 385 q 283 279 239 322 q 317 258 307 258 q 353 276 326 257 q 374 299 369 290 q 379 331 379 308 m 621 333 q 581 222 588 222 q 574 213 574 222 q 556 182 574 203 q 478 126 519 140 q 408 128 436 111 q 379 186 379 144 l 379 222 l 332 222 q 269 230 290 221 q 228 267 247 239 q 213 335 210 296 q 335 433 222 433 q 413 407 375 433 l 413 475 q 409 539 413 526 q 388 565 406 551 q 325 587 360 589 q 267 554 290 585 q 225 485 233 513 q 206 442 215 454 q 182 436 196 431 q 172 467 168 442 q 193 526 175 492 q 263 614 228 590 q 347 631 297 638 q 453 547 433 618 q 436 310 472 476 q 432 167 407 178 q 475 178 444 161 q 539 249 504 193 q 574 338 574 306 q 582 385 574 354 q 581 469 590 413 q 556 550 572 525 q 487 624 524 599 q 390 664 450 649 q 242 662 310 685 q 131 575 174 639 q 92 433 94 522 q 124 294 89 343 q 138 267 138 276 q 167 235 138 261 q 213 200 196 208 q 231 193 217 199 q 256 182 244 188 q 279 168 267 176 q 291 153 292 160 q 281 135 290 146 q 219 146 267 124 q 135 203 171 168 q 83 267 100 238 q 49 354 67 296 q 42 443 39 385 q 58 529 46 501 q 76 575 69 553 q 122 633 82 593 q 186 688 161 674 q 467 686 310 758 q 548 627 501 671 q 601 560 594 583 q 610 535 603 554 q 618 511 617 517 q 624 490 619 506 q 631 467 629 474 q 634 445 632 460 q 635 420 636 431 q 633 394 635 410 q 629 365 632 379 q 621 333 626 350 z "},"A":{"ha":396,"x_min":42,"x_max":354,"o":"m 199 497 q 235 498 222 497 q 256 500 249 499 q 265 505 264 501 q 264 513 265 508 q 253 550 261 518 q 235 610 244 582 q 219 642 226 638 q 172 633 192 661 q 133 519 151 604 l 129 497 l 199 497 m 324 110 q 290 138 297 110 q 283 263 283 165 q 274 425 281 390 l 125 425 q 106 174 106 239 q 96 122 106 136 q 63 111 86 108 q 47 124 49 113 q 42 190 44 135 q 52 405 39 286 q 86 599 65 524 q 157 714 111 689 q 253 695 203 738 q 317 578 303 653 q 349 299 339 451 q 354 197 353 231 q 353 141 356 163 q 344 115 350 119 q 324 110 338 110 z "},"B":{"ha":288,"x_min":42,"x_max":244,"o":"m 128 192 q 165 226 149 200 q 181 285 181 251 q 176 324 181 313 q 156 351 172 335 q 121 376 131 376 q 114 283 114 376 q 115 233 114 250 q 117 206 115 217 q 120 194 118 196 q 128 192 122 192 m 114 550 q 124 460 114 460 q 133 464 126 458 q 176 535 169 489 q 156 615 183 581 q 119 638 126 651 q 114 550 114 624 m 226 626 q 235 607 226 613 q 243 550 243 604 q 235 493 243 496 q 224 469 229 488 q 210 444 219 451 q 207 400 181 422 q 244 306 238 375 q 226 194 250 236 q 194 153 201 158 q 140 123 174 136 q 85 110 106 110 q 47 132 56 110 q 42 431 39 156 q 47 662 44 613 q 57 715 49 711 q 159 697 99 736 q 226 626 219 657 z "},"C":{"ha":365,"x_min":42,"x_max":321,"o":"m 251 553 q 232 615 250 582 q 190 643 214 649 q 156 628 168 643 q 132 574 143 614 q 122 301 94 446 q 186 186 143 188 q 201 190 193 186 q 233 231 215 197 q 251 282 251 264 q 262 314 251 300 q 288 328 272 328 q 317 313 310 328 q 321 263 325 299 q 250 132 308 172 q 131 126 186 90 q 53 263 76 161 q 42 417 43 301 q 49 558 40 532 q 67 618 60 590 q 142 713 86 688 q 229 715 196 735 q 309 613 279 689 q 311 510 339 538 q 272 503 290 489 q 251 553 254 517 z "},"D":{"ha":338,"x_min":42,"x_max":294,"o":"m 119 643 q 115 533 117 650 q 115 300 114 417 q 118 190 115 183 q 151 216 125 190 q 188 260 176 242 q 224 378 214 303 q 218 504 233 454 q 119 643 181 615 m 51 714 q 90 722 63 728 q 138 708 118 717 q 174 690 158 700 q 197 675 189 675 q 260 589 219 675 q 294 371 307 494 q 217 178 281 247 q 118 117 181 138 q 46 122 56 97 q 42 419 42 133 q 51 714 42 704 z "},"E":{"ha":317,"x_min":40,"x_max":275,"o":"m 265 661 q 114 651 256 651 l 114 529 l 179 529 q 254 519 233 529 q 275 485 275 510 q 258 462 275 467 q 181 457 240 457 l 114 457 l 114 182 l 181 182 q 255 174 235 182 q 275 143 275 165 q 253 116 275 122 q 156 110 231 110 l 57 110 q 47 136 50 121 q 42 182 43 151 q 40 238 40 213 q 41 324 40 264 q 42 431 42 383 q 57 715 42 706 q 157 724 69 724 q 260 715 244 724 q 274 690 272 708 q 265 661 276 671 z "},"F":{"ha":333,"x_min":42,"x_max":292,"o":"m 47 710 q 292 715 65 715 q 292 696 292 710 q 280 658 292 664 q 197 651 268 653 q 190 651 193 651 l 114 651 l 114 529 l 185 529 q 261 520 239 529 q 283 489 283 511 q 265 463 283 469 q 189 457 247 457 l 114 457 q 107 135 114 160 q 57 118 89 101 q 44 168 46 125 q 42 415 42 211 q 47 710 42 704 z "},"G":{"ha":471,"x_min":42,"x_max":429,"o":"m 297 579 q 283 583 297 579 q 268 610 268 586 q 239 649 268 633 q 183 654 210 664 q 139 575 156 643 q 122 406 122 507 q 160 192 122 257 q 183 165 174 168 q 210 171 193 161 q 250 242 232 186 q 268 351 268 297 q 264 380 268 375 q 240 385 260 385 q 197 392 208 385 q 186 419 186 399 q 204 458 186 451 q 301 465 222 465 q 383 463 364 465 q 413 449 401 460 q 429 424 429 432 q 405 392 426 404 q 357 385 383 381 q 349 93 357 119 q 313 78 339 78 q 288 81 293 78 q 283 97 283 83 q 254 104 283 133 q 194 90 240 90 q 151 94 163 90 q 124 113 139 97 q 54 276 76 160 q 42 418 43 331 q 50 542 40 506 q 92 665 72 629 q 146 722 111 700 q 247 729 199 747 q 326 668 296 711 q 339 594 356 625 q 297 579 326 572 z "},"H":{"ha":321,"x_min":44,"x_max":279,"o":"m 108 694 q 113 514 113 681 l 218 514 l 218 708 q 249 706 228 708 q 279 703 269 703 l 279 114 q 249 111 269 114 q 218 108 228 108 q 214 438 219 278 q 113 442 176 436 q 106 119 113 139 q 44 114 101 110 q 44 697 39 647 q 77 707 49 708 q 108 694 106 706 z "},"I":{"ha":260,"x_min":43,"x_max":217,"o":"m 129 707 q 203 705 192 707 q 217 688 214 703 q 207 651 222 664 q 163 643 192 639 l 163 175 q 207 166 192 178 q 217 131 222 154 q 202 113 214 115 q 129 110 190 110 q 51 117 64 110 q 44 154 38 124 q 47 163 46 160 q 52 169 49 167 q 59 172 56 171 q 68 174 63 174 q 77 175 74 175 q 88 175 81 175 q 99 175 96 175 l 99 643 q 84 643 92 643 q 69 644 76 643 q 58 646 63 644 q 49 651 53 647 q 44 663 46 656 q 43 681 43 675 q 43 693 43 686 q 47 701 43 700 q 52 706 50 703 q 63 708 54 708 q 78 708 72 707 q 101 708 85 708 q 129 707 117 707 z "},"J":{"ha":410,"x_min":42,"x_max":361,"o":"m 310 658 l 279 658 l 276 447 q 272 260 275 296 q 254 197 268 225 q 182 130 228 144 q 94 147 136 115 q 42 260 46 185 q 51 313 40 301 q 88 311 63 325 q 108 275 108 300 q 129 213 108 235 q 171 208 150 190 q 199 271 193 226 q 206 465 206 315 l 206 658 l 171 658 q 115 681 132 658 q 119 728 99 704 q 238 740 129 739 q 357 731 347 742 q 361 684 378 710 q 310 658 344 658 z "},"K":{"ha":297,"x_min":44,"x_max":250,"o":"m 44 697 q 106 707 46 707 q 111 522 106 533 q 138 557 118 522 q 188 637 169 615 q 224 657 207 658 q 246 594 274 651 q 225 563 231 563 q 218 554 218 563 q 168 474 210 536 q 125 403 126 413 q 194 251 119 390 q 249 144 240 165 q 250 111 257 124 q 222 93 242 93 q 193 110 207 93 q 156 175 179 128 q 106 251 135 213 l 106 93 q 44 96 86 96 q 44 697 39 654 z "},"L":{"ha":329,"x_min":42,"x_max":288,"o":"m 46 694 q 114 707 50 707 q 118 163 111 432 q 203 158 146 161 q 288 154 260 156 l 288 97 q 208 97 271 99 q 98 97 146 96 q 49 103 50 97 q 42 397 43 113 q 46 694 42 681 z "},"M":{"ha":772,"x_min":43,"x_max":729,"o":"m 699 93 q 667 107 671 93 q 663 217 663 117 q 635 553 663 383 q 619 603 625 618 q 576 254 586 517 q 565 103 571 108 q 553 96 563 97 q 526 95 543 94 q 504 96 510 96 q 458 614 504 476 q 431 475 440 565 q 417 261 422 385 q 408 97 411 138 l 351 97 l 351 271 q 367 563 353 464 q 414 697 382 661 q 454 708 425 711 q 497 689 483 704 q 533 621 531 646 q 546 632 533 610 q 551 643 549 638 q 581 694 571 685 q 622 708 592 708 q 664 693 651 707 q 714 558 704 646 q 726 315 719 500 q 729 113 732 129 q 699 93 724 93 m 43 929 q 44 933 39 932 q 61 931 57 936 l 58 928 q 43 929 49 924 z "},"N":{"ha":332,"x_min":42,"x_max":290,"o":"m 290 404 q 286 107 290 117 q 260 94 281 92 q 231 113 240 96 q 206 176 222 126 q 183 240 190 226 q 164 295 176 251 q 146 349 151 339 q 129 397 142 353 q 113 444 117 440 q 106 282 106 451 q 106 239 106 267 q 96 104 106 118 q 53 96 89 93 q 44 96 47 96 q 42 283 44 106 q 42 574 40 461 q 50 696 43 688 q 84 703 65 714 q 113 657 103 692 q 165 504 128 608 q 222 340 201 400 l 225 515 q 229 663 226 635 q 243 699 232 692 q 275 699 258 708 q 288 653 286 693 q 290 404 290 614 z "},"O":{"ha":342,"x_min":42,"x_max":300,"o":"m 122 396 q 135 204 122 235 q 208 251 167 128 q 224 417 222 290 q 213 588 225 544 q 188 639 201 626 q 172 648 176 649 q 158 636 168 647 q 129 565 136 610 q 122 396 122 521 m 130 719 q 135 721 130 719 q 169 724 140 724 q 210 719 199 724 q 239 694 221 714 q 268 648 258 674 q 292 556 278 622 q 300 399 300 514 q 292 251 300 283 q 244 140 271 168 q 169 94 208 100 q 101 119 129 89 q 42 408 42 188 q 103 696 42 622 q 130 719 119 714 z "},"P":{"ha":296,"x_min":42,"x_max":242,"o":"m 128 626 q 122 514 122 626 q 129 407 122 408 q 139 410 132 406 q 174 501 169 429 q 151 604 178 572 q 128 626 132 626 m 96 707 q 226 623 179 707 q 242 447 274 539 q 202 376 229 411 q 151 331 175 342 l 122 317 q 111 108 122 118 q 79 94 100 94 q 50 108 58 94 q 42 400 42 125 q 50 692 42 675 q 96 707 60 707 z "},"Q":{"ha":374,"x_min":42,"x_max":322,"o":"m 171 196 q 179 207 171 207 q 187 222 186 207 q 181 240 188 238 q 147 276 172 244 q 126 308 128 300 q 135 331 125 315 q 182 339 158 363 q 208 350 204 317 q 208 450 213 375 q 189 588 203 561 q 168 614 176 608 q 152 611 160 619 q 133 578 144 603 q 111 364 107 515 q 143 176 115 213 q 158 181 146 172 q 171 196 171 189 m 276 260 q 276 240 268 246 q 285 229 283 233 q 308 196 285 219 q 322 136 346 160 q 263 143 299 113 l 244 161 q 226 144 242 158 q 202 125 210 131 q 179 114 194 119 q 149 110 164 108 q 97 126 114 106 q 67 182 79 146 q 50 244 61 199 q 42 401 40 285 q 54 564 43 518 q 132 682 79 663 q 192 683 161 694 q 239 640 222 671 q 272 529 256 608 q 284 383 282 483 q 276 260 286 283 z "},"R":{"ha":303,"x_min":42,"x_max":260,"o":"m 114 489 q 122 382 114 383 q 129 383 125 381 q 169 456 150 394 q 166 536 179 488 q 125 597 153 585 q 119 596 121 599 q 115 580 117 593 q 114 547 114 567 q 114 489 114 528 m 158 319 q 153 301 142 319 q 171 275 158 293 q 194 233 194 243 q 201 221 194 224 q 233 181 208 218 q 260 135 258 144 q 243 92 265 97 q 211 95 224 86 q 174 140 199 104 q 147 179 160 163 q 124 211 133 196 q 115 204 117 224 q 114 169 114 193 q 111 119 114 131 q 97 99 108 107 q 73 86 81 86 q 54 99 65 86 q 44 157 46 107 q 42 392 42 207 q 53 682 42 671 q 124 680 69 700 q 201 628 178 660 q 240 524 232 586 q 232 413 249 463 q 197 352 222 385 q 158 319 171 319 z "},"S":{"ha":306,"x_min":46,"x_max":264,"o":"m 264 583 q 253 531 264 546 q 218 514 243 515 q 191 528 199 514 q 183 582 183 543 q 149 658 183 658 q 128 630 132 658 q 132 561 124 601 q 158 489 140 521 q 198 418 176 456 q 239 347 219 381 q 260 296 256 315 q 264 236 264 276 q 243 142 264 175 q 206 102 224 111 q 147 93 189 93 q 106 97 117 93 q 79 122 96 101 q 46 213 54 153 q 48 292 36 279 q 114 301 60 304 q 115 274 114 293 q 116 241 115 256 q 119 210 117 226 q 124 183 121 193 q 133 171 128 174 q 165 168 149 158 q 190 241 194 186 q 150 343 185 296 q 120 387 129 369 q 101 418 111 404 q 54 594 53 492 q 67 681 56 654 q 111 725 79 708 q 145 739 136 738 q 182 732 154 740 q 242 682 221 722 q 264 583 264 642 z "},"T":{"ha":363,"x_min":42,"x_max":321,"o":"m 310 644 q 303 637 307 640 q 292 631 299 633 q 281 628 286 629 q 266 626 275 626 q 251 626 257 626 q 235 626 246 626 q 219 626 225 626 q 219 447 218 561 q 218 219 221 332 q 210 103 215 107 q 178 94 200 92 q 151 107 156 96 q 147 626 147 146 l 113 626 q 65 638 85 626 q 42 665 44 650 q 57 696 40 681 q 181 708 68 706 q 306 701 293 710 q 321 676 319 693 q 310 644 322 658 z "},"U":{"ha":386,"x_min":42,"x_max":344,"o":"m 114 553 q 186 150 114 189 q 246 192 222 131 q 271 301 265 243 q 275 492 276 360 q 285 674 274 657 q 315 678 290 683 q 340 669 338 672 q 344 458 344 667 q 342 272 344 310 q 324 190 339 235 q 279 104 304 129 q 251 82 263 86 q 207 78 240 78 q 138 96 160 78 q 116 117 125 107 q 100 138 107 126 q 89 158 93 150 q 81 181 85 165 q 75 203 76 196 q 69 232 74 210 q 63 265 65 254 q 50 375 57 269 q 42 569 43 481 q 53 669 42 658 q 101 678 72 689 q 112 653 110 675 q 114 553 114 631 z "},"V":{"ha":314,"x_min":43,"x_max":269,"o":"m 200 522 q 203 646 200 624 q 217 675 206 668 q 250 678 235 685 q 269 653 265 671 q 269 472 275 632 q 256 260 264 313 q 224 156 247 210 q 179 89 200 103 q 113 108 147 68 q 64 222 79 147 q 46 415 54 274 q 43 604 38 557 q 60 672 49 661 q 103 675 79 690 q 117 479 115 667 q 123 288 118 338 q 149 183 128 238 q 163 179 157 163 q 174 215 167 189 q 200 522 200 319 z "},"W":{"ha":474,"x_min":42,"x_max":432,"o":"m 110 510 q 126 260 110 340 q 156 163 147 163 q 164 175 158 163 q 194 472 189 239 q 203 657 200 642 q 254 688 210 701 q 268 658 265 685 q 271 510 271 632 q 288 260 271 340 q 317 163 308 163 q 326 175 321 163 q 356 471 350 232 q 365 652 360 622 q 389 688 369 682 q 424 675 417 696 q 432 522 432 653 q 419 276 432 390 q 390 153 406 163 q 381 131 388 149 q 363 100 375 113 q 247 136 300 38 q 226 151 235 160 q 222 138 222 147 q 201 103 222 129 q 156 77 182 79 q 113 96 131 75 q 57 218 71 144 q 42 482 43 292 q 51 678 40 663 q 96 686 67 697 q 107 651 104 683 q 110 510 110 619 z "},"X":{"ha":290,"x_min":46,"x_max":249,"o":"m 106 671 q 133 531 106 621 q 143 508 140 507 q 160 565 150 515 q 171 640 171 615 q 211 699 171 699 q 239 685 225 699 q 249 663 253 672 q 181 396 235 546 q 203 332 189 371 q 226 263 218 293 q 242 182 235 233 q 213 93 256 93 q 171 154 174 93 q 160 228 171 178 q 144 285 150 279 q 133 267 140 289 q 114 175 125 236 q 97 108 106 122 q 67 96 88 93 q 49 105 51 97 q 46 154 46 113 q 100 379 46 274 q 100 413 107 394 q 49 588 65 490 q 51 693 32 685 q 89 696 72 703 q 106 671 106 689 z "},"Y":{"ha":290,"x_min":42,"x_max":244,"o":"m 42 692 q 69 692 51 692 q 104 682 99 692 q 115 613 110 672 q 119 567 118 585 q 146 447 128 468 q 155 467 151 457 q 161 492 158 476 q 165 515 164 507 q 167 549 165 524 q 169 586 168 574 q 182 682 175 672 q 214 692 192 692 q 244 667 239 692 q 244 565 250 643 q 193 394 236 446 q 175 355 178 376 q 171 226 172 333 l 168 82 l 140 82 q 107 107 113 82 q 100 253 101 132 q 89 394 99 383 q 56 458 65 419 q 44 581 46 496 l 42 692 z "},"Z":{"ha":301,"x_min":42,"x_max":260,"o":"m 153 699 q 233 694 219 697 q 260 668 247 690 q 197 420 244 594 q 135 174 150 246 q 140 160 132 163 q 182 158 147 158 q 228 155 217 158 q 247 139 239 151 q 253 99 260 121 q 234 81 247 83 q 151 78 221 78 q 57 85 75 78 q 44 124 39 93 q 110 390 67 226 q 167 608 153 553 q 163 624 169 621 q 117 626 157 626 q 51 636 61 626 q 42 665 40 646 q 56 690 43 683 q 153 699 69 699 z "},"_":{"ha":665,"x_min":42,"x_max":624,"o":"m 53 32 q 331 36 64 36 q 610 32 599 36 q 624 -2 624 26 q 610 -40 624 -31 q 333 -51 594 -51 q 56 -40 71 -51 q 42 -2 43 -31 q 53 32 40 26 z "},"`":{"ha":322,"x_min":43,"x_max":281,"o":"m 119 715 q 128 707 119 707 q 192 662 140 707 q 261 593 244 617 q 281 535 278 568 q 271 490 283 503 q 213 486 251 471 q 176 530 200 494 q 138 576 153 565 q 102 603 115 592 q 74 625 89 614 q 43 658 49 643 q 48 690 40 671 q 67 717 56 708 q 98 723 76 724 q 119 715 119 722 z "},"a":{"ha":268,"x_min":42,"x_max":228,"o":"m 183 226 q 150 256 175 254 q 103 240 125 257 q 82 200 82 222 q 115 151 82 169 q 167 153 147 133 q 183 226 197 183 m 42 199 q 78 270 42 242 q 163 293 115 299 l 194 289 l 194 368 q 188 448 194 431 q 158 465 182 465 q 126 444 139 465 q 114 390 114 424 q 110 357 114 363 q 93 351 107 351 q 74 358 76 351 q 75 403 72 364 q 121 500 82 489 q 173 501 139 506 q 217 486 207 496 q 227 283 229 474 q 213 88 225 92 q 197 101 201 85 q 172 113 194 118 q 85 118 125 99 q 56 153 69 126 q 42 199 42 179 z "},"b":{"ha":317,"x_min":44,"x_max":275,"o":"m 201 281 q 147 301 181 296 q 119 301 125 304 q 103 276 113 297 q 129 171 68 203 q 179 169 151 158 q 224 221 217 185 q 201 281 232 257 m 83 597 q 89 347 89 579 q 191 345 154 353 q 254 301 228 338 q 275 240 271 276 q 265 181 279 204 q 202 122 242 140 q 128 117 163 104 q 95 125 101 126 q 88 108 89 124 q 87 103 88 106 q 84 98 86 100 q 81 94 82 96 q 76 92 79 93 q 70 91 72 92 q 65 90 68 90 q 58 90 61 90 q 51 90 56 90 q 44 90 47 90 q 44 593 39 554 q 63 610 46 608 q 83 597 79 613 z "},"c":{"ha":222,"x_min":42,"x_max":179,"o":"m 156 381 q 141 417 144 385 q 129 456 138 450 q 116 463 119 464 q 107 453 113 463 q 78 296 78 403 q 107 139 78 189 q 114 130 111 132 q 119 129 117 128 q 128 136 122 131 q 143 179 140 149 q 163 211 144 211 q 174 205 172 211 q 176 174 176 199 q 155 106 176 129 q 106 92 133 83 q 60 136 78 100 q 44 187 47 161 q 42 296 42 213 q 52 440 42 400 q 93 494 63 479 q 149 490 124 510 q 179 426 174 471 q 177 387 183 399 q 156 381 171 375 z "},"d":{"ha":324,"x_min":43,"x_max":281,"o":"m 161 158 q 217 188 196 158 q 231 258 238 218 q 199 297 224 288 q 140 294 175 307 q 106 269 115 283 q 96 226 96 256 q 113 176 96 194 q 161 158 131 158 m 233 472 q 239 614 233 608 q 263 617 244 619 q 281 346 281 614 l 281 76 q 273 77 278 76 q 265 78 268 78 q 257 80 261 79 q 250 81 253 81 q 244 83 247 82 q 238 87 240 85 q 235 92 236 89 q 235 99 235 94 q 231 110 233 107 q 223 113 228 113 q 203 110 218 113 q 76 139 119 96 q 43 250 32 182 q 110 340 54 318 q 167 351 133 350 q 218 344 201 353 q 231 354 228 339 q 233 472 233 372 z "},"e":{"ha":250,"x_min":42,"x_max":203,"o":"m 78 363 q 158 351 78 351 q 149 429 161 404 q 127 448 142 444 q 104 439 113 451 q 88 400 97 428 q 78 363 78 372 m 78 321 q 87 199 72 265 q 122 122 101 132 q 149 125 138 115 q 164 158 161 135 q 176 198 169 188 q 194 204 182 208 q 203 147 217 194 q 160 86 189 100 q 124 80 138 76 q 90 104 111 83 q 52 173 63 132 q 42 296 42 214 q 54 421 42 379 q 97 482 67 463 q 128 496 119 496 q 154 485 136 496 q 193 375 192 460 l 193 324 q 78 321 156 321 z "},"f":{"ha":356,"x_min":43,"x_max":313,"o":"m 306 626 q 305 624 306 626 q 288 622 303 622 q 267 629 272 622 q 253 667 261 636 q 215 731 236 733 q 208 726 211 729 q 190 667 199 715 q 185 578 182 618 q 231 577 211 579 q 263 565 250 575 q 272 536 276 556 q 263 520 269 524 q 228 515 256 517 l 185 513 q 185 397 185 501 q 183 224 186 293 q 174 160 181 156 q 146 158 161 150 q 131 189 133 164 q 129 340 129 214 l 129 514 l 89 514 q 54 517 61 514 q 43 535 47 519 q 62 572 35 561 q 129 578 89 582 q 165 769 124 728 q 217 788 185 789 q 272 764 249 786 q 313 649 319 718 q 306 626 310 631 z "},"g":{"ha":358,"x_min":42,"x_max":317,"o":"m 208 424 q 125 419 160 443 q 104 362 104 406 q 125 294 104 318 q 176 270 144 271 q 231 292 207 269 q 250 324 246 308 q 253 371 254 339 q 241 402 250 390 q 208 424 232 414 m 313 563 q 317 292 317 563 q 315 58 317 106 q 301 -10 313 11 q 183 -85 264 -83 q 60 -14 103 -86 q 42 50 40 19 q 64 83 43 81 q 95 76 83 86 q 107 46 107 65 q 128 1 107 22 q 172 -19 150 -19 q 217 -4 196 -19 q 249 35 239 11 q 258 98 254 47 q 260 194 261 149 q 253 239 258 239 q 238 229 247 239 q 179 221 231 221 q 121 229 128 221 q 97 239 111 239 q 63 274 83 239 q 42 360 42 311 q 63 444 42 415 q 136 489 85 472 q 160 494 147 493 q 188 492 172 494 q 212 487 203 489 q 238 480 221 485 q 260 474 256 475 q 260 494 260 483 q 260 516 260 504 q 261 537 260 528 q 265 553 263 546 q 274 561 268 560 q 313 563 292 574 z "},"h":{"ha":314,"x_min":42,"x_max":271,"o":"m 88 763 q 96 685 93 758 q 97 536 99 611 q 97 417 96 461 q 216 383 179 424 q 269 233 253 342 q 270 160 276 179 q 240 143 264 140 q 224 160 229 146 q 210 222 218 175 q 185 322 197 296 q 149 350 172 349 q 112 333 121 353 q 99 238 103 314 l 93 146 l 44 146 q 42 340 44 150 q 42 648 40 529 q 50 765 43 767 q 88 763 72 778 z "},"i":{"ha":157,"x_min":42,"x_max":113,"o":"m 53 663 q 79 675 60 678 q 101 657 99 672 q 104 532 104 632 q 103 310 104 432 q 103 146 103 188 q 56 151 63 139 q 49 404 50 161 q 53 663 47 647 m 50 765 q 85 771 65 775 q 112 754 104 767 q 111 728 119 742 q 90 717 108 719 q 55 720 71 714 q 42 739 39 726 q 50 765 39 761 z "},"j":{"ha":301,"x_min":42,"x_max":260,"o":"m 106 140 q 115 107 106 124 q 135 85 124 90 q 156 86 146 79 q 181 158 175 107 q 186 374 186 208 q 197 597 186 593 q 223 597 207 601 q 244 583 239 592 q 251 362 253 572 q 242 119 250 151 q 181 24 219 33 q 124 24 156 17 q 81 47 93 32 q 49 104 60 71 q 42 163 39 138 q 64 189 46 188 q 94 178 83 192 q 106 140 106 165 m 260 676 q 215 643 260 643 q 174 661 186 643 q 181 697 163 679 q 228 704 196 713 q 260 676 260 696 z "},"k":{"ha":306,"x_min":42,"x_max":260,"o":"m 243 457 q 260 440 253 457 q 256 409 269 424 q 183 360 242 394 q 122 318 122 322 q 197 239 122 311 q 260 172 251 185 q 260 146 268 160 q 240 126 250 126 q 99 257 211 139 l 99 204 q 94 142 99 158 q 75 126 89 126 q 47 167 51 126 q 42 421 42 207 q 46 711 42 700 q 94 719 50 726 l 100 376 q 154 408 144 397 q 199 436 160 415 q 243 457 238 457 z "},"l":{"ha":135,"x_min":44,"x_max":93,"o":"m 93 719 l 93 138 l 44 138 q 44 706 39 653 q 62 722 46 721 q 93 719 78 724 z "},"m":{"ha":438,"x_min":42,"x_max":394,"o":"m 54 156 q 43 263 46 143 q 42 510 40 383 q 42 699 43 638 l 90 699 q 94 594 90 600 q 111 607 99 594 q 151 618 124 618 q 189 607 178 618 q 219 563 217 576 q 243 583 224 553 q 266 608 257 603 q 297 617 275 614 q 351 599 332 618 q 384 529 376 574 q 394 350 392 485 q 392 183 397 215 q 365 150 388 150 q 356 153 358 150 q 351 167 353 156 q 348 201 349 179 q 347 265 347 224 q 338 455 347 357 q 318 563 328 553 q 297 565 308 572 q 278 539 286 558 q 246 308 251 472 q 232 154 242 165 q 218 151 228 150 q 193 187 199 154 q 188 324 188 219 q 160 564 188 546 q 113 518 132 582 q 90 279 90 440 q 78 154 90 164 q 54 156 71 149 z "},"n":{"ha":303,"x_min":42,"x_max":261,"o":"m 71 699 q 88 691 85 699 q 90 646 90 683 l 90 593 l 111 610 q 154 626 131 625 q 192 613 178 626 q 257 276 249 553 l 261 149 q 238 151 253 150 q 215 154 222 153 l 210 251 q 154 576 193 564 q 125 528 139 581 q 97 283 97 433 q 71 151 97 156 q 49 160 56 149 q 42 428 42 169 q 47 693 42 686 q 71 699 53 699 z "},"o":{"ha":247,"x_min":42,"x_max":206,"o":"m 100 201 q 129 188 115 160 q 149 239 131 192 q 157 377 158 268 q 146 513 156 486 q 103 517 126 568 q 88 360 89 486 q 100 201 86 233 m 42 364 q 50 512 42 474 q 86 578 58 550 q 132 594 106 596 q 172 572 158 593 q 199 501 192 543 q 206 368 206 460 q 191 200 204 249 q 139 131 178 151 q 111 119 118 119 q 90 128 104 118 q 52 197 63 146 q 42 364 42 249 z "},"p":{"ha":390,"x_min":42,"x_max":349,"o":"m 239 424 q 171 435 201 447 q 118 383 140 422 q 126 302 99 349 q 179 256 154 256 q 240 283 207 256 q 281 340 274 311 q 272 382 285 357 q 239 424 260 407 m 79 563 q 103 557 100 563 q 107 522 107 551 q 117 482 107 482 q 128 489 121 483 q 173 508 143 503 q 228 504 203 513 q 294 463 256 496 q 332 415 332 431 q 340 396 332 401 q 349 355 349 390 q 339 299 349 319 q 303 247 328 272 q 263 222 278 222 q 239 215 243 222 q 183 208 236 207 q 126 215 131 208 q 111 200 114 236 q 107 61 107 167 l 107 -100 l 86 -106 q 54 -99 60 -112 q 42 161 42 -75 q 42 231 42 183 q 47 557 42 551 q 79 563 53 563 z "},"q":{"ha":463,"x_min":46,"x_max":417,"o":"m 193 449 q 114 406 142 449 q 111 324 86 363 q 153 286 125 301 q 206 271 181 271 q 233 277 225 271 q 253 308 240 283 q 249 422 286 375 q 226 444 235 440 q 193 449 217 449 m 335 286 q 342 4 335 4 q 364 17 349 4 q 415 13 399 43 q 416 -23 426 -7 q 363 -67 406 -39 q 314 -94 326 -90 q 289 -92 301 -99 q 272 -63 275 -85 q 269 76 269 -42 q 261 228 269 225 q 256 226 260 228 q 189 219 239 218 q 131 229 139 221 q 108 239 121 239 q 54 294 86 239 q 47 393 35 329 q 89 482 58 457 q 165 517 124 510 q 236 510 207 525 q 260 499 254 500 q 268 503 267 499 q 269 528 269 508 q 281 571 268 558 q 322 574 294 583 q 333 522 331 571 q 335 286 335 474 z "},"r":{"ha":276,"x_min":42,"x_max":236,"o":"m 90 592 q 104 582 90 576 q 219 554 178 614 q 236 501 235 533 q 224 463 238 468 q 198 465 208 457 q 188 490 188 472 q 174 526 188 506 q 149 546 160 546 q 117 530 142 544 q 90 514 93 515 l 90 326 q 89 208 90 247 q 83 142 88 169 q 72 115 79 115 q 54 115 65 115 q 44 160 46 118 q 42 368 42 203 q 47 621 42 615 q 74 621 58 632 q 90 592 90 610 z "},"s":{"ha":260,"x_min":43,"x_max":218,"o":"m 169 476 q 160 524 169 503 q 136 550 150 546 q 110 546 117 557 q 104 499 104 535 q 150 371 104 422 q 206 297 194 321 q 218 232 218 274 q 214 189 218 203 q 193 156 210 175 q 166 131 176 136 q 129 126 156 126 q 76 143 93 126 q 49 206 58 160 q 43 258 39 244 q 68 271 47 271 q 85 266 82 271 q 89 239 89 261 q 125 175 89 175 q 169 231 169 175 q 160 278 169 258 q 119 335 150 299 q 54 493 56 408 q 100 594 51 575 q 141 597 117 601 q 179 579 165 592 q 214 510 204 556 q 206 449 224 464 q 181 444 192 436 q 169 476 169 453 z "},"t":{"ha":328,"x_min":42,"x_max":281,"o":"m 214 474 l 175 474 q 185 221 175 265 q 195 183 190 192 q 211 176 200 175 q 232 213 226 178 q 246 256 236 244 q 271 258 256 268 q 281 178 297 240 q 242 131 271 144 q 155 157 182 103 q 126 358 128 211 l 126 472 l 85 475 q 49 481 56 478 q 42 497 42 483 q 49 514 42 511 q 85 519 56 517 l 126 522 q 126 580 129 549 q 131 635 124 611 q 158 657 138 660 q 165 653 163 658 q 169 638 168 647 q 172 616 171 628 q 174 590 174 604 q 175 564 175 576 q 176 540 175 551 q 176 522 176 528 q 197 520 183 521 q 222 519 210 519 q 247 518 235 519 q 265 513 258 517 q 271 503 272 508 q 260 481 274 488 q 214 474 247 474 z "},"u":{"ha":342,"x_min":42,"x_max":300,"o":"m 88 529 q 90 413 90 529 q 150 176 90 167 q 157 178 154 176 q 184 228 176 186 q 192 379 192 271 q 203 529 192 521 q 233 531 218 540 q 249 392 244 525 q 258 223 253 258 q 281 172 263 188 q 300 140 300 156 q 289 127 300 131 q 263 128 278 124 q 239 142 249 132 q 215 158 224 157 q 194 142 207 158 q 160 126 185 128 q 111 135 135 124 q 42 414 44 165 q 53 532 42 528 q 88 529 58 536 z "},"v":{"ha":244,"x_min":42,"x_max":203,"o":"m 42 400 l 42 538 l 90 538 l 90 407 q 118 178 92 208 q 128 176 122 171 q 148 335 138 200 q 154 538 158 469 l 203 538 l 203 428 q 142 117 203 168 q 109 115 128 106 q 76 147 90 124 q 42 400 42 211 z "},"w":{"ha":346,"x_min":43,"x_max":304,"o":"m 43 517 q 90 529 50 532 q 97 256 90 288 q 110 204 103 235 q 132 217 119 158 q 143 297 138 246 q 154 531 156 433 q 176 528 161 531 q 199 525 192 525 q 203 312 196 431 q 226 181 211 193 q 261 454 244 153 q 264 525 263 497 l 304 525 q 303 463 304 507 q 301 382 301 418 q 299 306 300 346 q 294 238 297 265 q 286 199 290 210 q 229 118 254 118 q 205 133 221 118 q 183 163 189 149 q 171 168 179 176 q 163 154 168 164 q 131 123 144 128 q 100 132 118 118 q 59 205 72 153 q 43 369 46 257 q 43 517 40 510 z "},"x":{"ha":229,"x_min":42,"x_max":188,"o":"m 72 542 q 82 539 76 540 q 90 522 89 538 q 90 518 90 519 q 113 408 90 472 q 119 415 115 401 q 135 499 128 440 q 148 536 138 526 q 175 542 158 546 q 179 449 197 529 q 146 349 161 369 q 153 292 136 333 q 188 160 188 200 q 184 131 188 136 q 163 126 181 126 q 142 131 146 126 q 139 153 139 135 q 118 243 138 201 q 113 247 114 253 q 90 147 90 178 q 85 130 90 133 q 65 126 81 126 q 46 130 50 126 q 42 149 42 133 q 78 296 44 197 q 85 333 86 321 q 75 374 85 346 q 50 467 60 415 q 50 533 40 519 q 72 542 61 547 z "},"y":{"ha":329,"x_min":43,"x_max":279,"o":"m 89 529 q 109 525 106 529 q 113 500 113 521 q 125 420 113 465 q 150 354 138 375 q 165 340 157 343 q 179 337 174 336 q 197 342 185 338 q 214 349 208 347 l 214 429 q 221 526 215 519 q 269 525 226 532 l 279 453 q 274 163 299 299 q 197 -4 250 28 q 125 -16 164 -24 q 68 22 86 -8 q 54 58 61 36 q 43 108 47 81 q 53 143 39 136 q 92 145 72 168 q 113 97 113 122 q 122 61 113 76 q 146 46 132 46 q 190 99 174 56 q 211 179 207 143 q 219 276 215 215 q 107 300 144 261 q 54 443 69 339 q 50 513 44 496 q 89 529 56 529 z "},"z":{"ha":235,"x_min":44,"x_max":193,"o":"m 121 546 q 184 543 175 546 q 193 525 193 540 q 152 326 193 460 q 106 158 111 192 l 150 158 q 188 156 183 158 q 192 136 193 153 q 181 117 189 119 q 119 111 172 114 q 49 116 60 108 q 49 163 39 124 q 76 265 56 189 q 113 405 97 342 q 131 497 128 468 l 90 497 q 48 506 58 497 q 44 533 38 514 q 121 546 50 546 z "},"":{"ha":358,"x_min":46,"x_max":317,"o":"m 317 558 q 261 497 317 497 q 206 534 214 497 q 228 636 197 571 q 263 693 253 686 q 294 680 281 701 q 292 647 307 658 q 285 626 282 640 q 300 603 288 613 q 317 558 317 590 m 139 667 q 129 636 139 656 q 143 599 119 622 q 160 549 164 578 q 141 509 154 521 q 99 497 128 497 q 47 531 61 497 q 49 593 32 564 q 100 693 85 683 q 125 690 111 700 q 139 667 139 681 z "},"":{"ha":358,"x_min":42,"x_max":317,"o":"m 217 679 q 260 699 236 699 q 301 682 285 700 q 316 630 321 661 q 275 522 311 599 q 231 508 256 483 q 226 547 218 521 q 232 573 233 565 q 217 596 231 581 q 217 679 178 640 m 156 632 q 147 594 156 594 q 140 585 140 594 q 122 536 140 578 q 105 506 113 514 q 89 499 97 497 q 63 516 71 501 q 65 546 56 531 q 60 593 85 578 q 42 639 42 604 q 61 686 43 674 q 124 690 93 707 q 156 632 156 674 z "}}}
